<?xml version="1.0" encoding="UTF-8" standalone="no"?>
<!-- Created with Inkscape (http://www.inkscape.org/) -->

<svg
   xmlns:svg="http://www.w3.org/2000/svg"
   xmlns="http://www.w3.org/2000/svg"
   xmlns:xlink="http://www.w3.org/1999/xlink"
   version="1.0"
   width="250pt"
   height="250pt"
   id="svg636">
  <defs
     id="defs638">
    <linearGradient
       id="linearGradient2807">
      <stop
         id="stop2809"
         style="stop-color:#000022;stop-opacity:0"
         offset="0" />
      <stop
         id="stop2811"
         style="stop-color:#000022;stop-opacity:0.38999999"
         offset="1" />
    </linearGradient>
    <linearGradient
       id="linearGradient684">
      <stop
         id="stop685"
         style="stop-color:#ffe51a;stop-opacity:1"
         offset="0" />
      <stop
         id="stop686"
         style="stop-color:#e60000;stop-opacity:0"
         offset="1" />
    </linearGradient>
    <linearGradient
       id="linearGradient649">
      <stop
         id="stop650"
         style="stop-color:#ffffff;stop-opacity:1"
         offset="0" />
      <stop
         id="stop651"
         style="stop-color:#000000;stop-opacity:0.47839999"
         offset="1" />
    </linearGradient>
    <linearGradient
       x1="0.39680198"
       y1="0.57735848"
       x2="1.0363363"
       y2="-0.29056594"
       id="linearGradient652"
       xlink:href="#linearGradient684"
       gradientUnits="objectBoundingBox"
       spreadMethod="pad" />
    <radialGradient
       cx="314.36707"
       cy="622.33319"
       r="129.41486"
       fx="314.36707"
       fy="622.33319"
       id="radialGradient653"
       xlink:href="#linearGradient649"
       gradientUnits="userSpaceOnUse"
       gradientTransform="matrix(1.199174,0,0,0.833907,115.0647,295.6275)" />
    <radialGradient
       cx="77.703499"
       cy="2006.7791"
       r="25.94915"
       fx="77.703499"
       fy="2006.7791"
       id="radialGradient654"
       xlink:href="#linearGradient649"
       gradientUnits="userSpaceOnUse"
       gradientTransform="matrix(3.005688,0,0,0.332703,115.0647,295.6275)" />
    <radialGradient
       cx="636.95264"
       cy="873.31403"
       r="84.825462"
       fx="636.95264"
       fy="873.31403"
       id="radialGradient875"
       xlink:href="#linearGradient649"
       gradientUnits="userSpaceOnUse"
       gradientTransform="matrix(0.928657,0,0,1.076824,115.0647,295.6275)" />
    <radialGradient
       cx="248.86224"
       cy="353.91174"
       r="82.692696"
       fx="248.86224"
       fy="353.91174"
       id="radialGradient877"
       xlink:href="#linearGradient649"
       gradientUnits="userSpaceOnUse"
       gradientTransform="matrix(0.551858,0,0,1.812061,115.0647,295.6275)" />
    <radialGradient
       cx="0.17181525"
       cy="0.10937142"
       r="1.6589482"
       fx="0.17181525"
       fy="0.10937142"
       id="radialGradient683"
       xlink:href="#linearGradient684" />
    <radialGradient
       id="radialGradient687"
       xlink:href="#linearGradient684" />
    <radialGradient
       cx="254.25938"
       cy="1441.0841"
       r="42.647346"
       fx="254.25938"
       fy="1441.0841"
       id="radialGradient1363"
       xlink:href="#linearGradient649"
       gradientUnits="userSpaceOnUse"
       gradientTransform="matrix(2.012624,0,0,0.496864,115.0647,295.6275)" />
    <radialGradient
       cx="769.30896"
       cy="373.53033"
       r="57.68771"
       fx="769.30896"
       fy="373.53033"
       id="radialGradient1365"
       xlink:href="#linearGradient649"
       gradientUnits="userSpaceOnUse"
       gradientTransform="matrix(0.598213,0,0,1.671646,115.0647,295.6275)" />
    <radialGradient
       cx="310.91577"
       cy="585.31793"
       r="75.703461"
       fx="310.91577"
       fy="585.31793"
       id="radialGradient1367"
       xlink:href="#linearGradient649"
       gradientUnits="userSpaceOnUse"
       gradientTransform="matrix(0.974096,0,0,1.026593,115.0647,295.6275)" />
    <radialGradient
       cx="314.36707"
       cy="622.33319"
       r="129.41486"
       fx="314.36707"
       fy="622.33319"
       id="radialGradient1413"
       xlink:href="#linearGradient649"
       gradientUnits="userSpaceOnUse"
       gradientTransform="matrix(1.199174,0,0,0.833907,104.0303,285.4069)" />
    <radialGradient
       cx="254.25938"
       cy="1441.0841"
       r="42.647346"
       fx="254.25938"
       fy="1441.0841"
       id="radialGradient1415"
       xlink:href="#linearGradient649"
       gradientUnits="userSpaceOnUse"
       gradientTransform="matrix(2.012624,0,0,0.496864,104.0303,285.4069)" />
    <radialGradient
       cx="769.30896"
       cy="373.53033"
       r="57.68771"
       fx="769.30896"
       fy="373.53033"
       id="radialGradient1417"
       xlink:href="#linearGradient649"
       gradientUnits="userSpaceOnUse"
       gradientTransform="matrix(0.598213,0,0,1.671646,104.0303,285.4069)" />
    <radialGradient
       cx="310.91577"
       cy="585.31793"
       r="75.703461"
       fx="310.91577"
       fy="585.31793"
       id="radialGradient1419"
       xlink:href="#linearGradient649"
       gradientUnits="userSpaceOnUse"
       gradientTransform="matrix(0.974096,0,0,1.026593,104.0303,285.4069)" />
    <radialGradient
       cx="77.703499"
       cy="2006.7791"
       r="25.94915"
       fx="77.703499"
       fy="2006.7791"
       id="radialGradient1421"
       xlink:href="#linearGradient649"
       gradientUnits="userSpaceOnUse"
       gradientTransform="matrix(3.005688,0,0,0.332703,104.0303,285.4069)" />
    <radialGradient
       cx="636.95264"
       cy="873.31403"
       r="84.825462"
       fx="636.95264"
       fy="873.31403"
       id="radialGradient1423"
       xlink:href="#linearGradient649"
       gradientUnits="userSpaceOnUse"
       gradientTransform="matrix(0.928657,0,0,1.076824,104.0303,285.4069)" />
    <radialGradient
       cx="248.86224"
       cy="353.91174"
       r="82.692696"
       fx="248.86224"
       fy="353.91174"
       id="radialGradient1425"
       xlink:href="#linearGradient649"
       gradientUnits="userSpaceOnUse"
       gradientTransform="matrix(0.551858,0,0,1.812061,104.0303,285.4069)" />
    <mask
       id="mask2920">
      <path
         d="m 304,156.5 a 149,149 0 1 1 -298,0 149,149 0 1 1 298,0 z"
         transform="matrix(0.996644,0,0,0.996644,2.02013,0.525168)"
         id="path2918"
         style="fill:#ffffff;fill-opacity:1;fill-rule:evenodd;stroke:none" />
    </mask>
    <radialGradient
       cx="105.2298"
       cy="100.92327"
       r="149"
       fx="105.2298"
       fy="100.92327"
       id="radialGradient2815"
       xlink:href="#linearGradient2807"
       gradientUnits="userSpaceOnUse"
       gradientTransform="matrix(2.573416,0,0,2.573416,-163.9033,-160.6078)" />
    <clipPath
       id="clipPath3677">
      <path
         d="m 3.2099996,1.5928129 c 0,0.6138792 -0.3324285,1.1115266 -0.7424998,1.1115266 C 2.0574284,2.7043395 1.725,2.2066921 1.725,1.5928129 c 0,-0.61387919 0.3324284,-1.11152661 0.7424998,-1.11152661 0.4100713,0 0.7424998,0.49764742 0.7424998,1.11152661 z"
         id="path3679"
         style="fill:none;stroke:#000000;stroke-width:0.00917641;stroke-linecap:round;stroke-linejoin:round;stroke-miterlimit:4;stroke-opacity:1;stroke-dasharray:none;stroke-dashoffset:0" />
    </clipPath>
    <radialGradient
       cx="105.2298"
       cy="100.92327"
       r="149"
       fx="105.2298"
       fy="100.92327"
       id="radialGradient2815-1"
       xlink:href="#linearGradient2807-7"
       gradientUnits="userSpaceOnUse"
       gradientTransform="matrix(2.573416,0,0,2.573416,-163.9033,-160.6078)" />
    <linearGradient
       id="linearGradient2807-7">
      <stop
         id="stop2809-4"
         style="stop-color:#000022;stop-opacity:0"
         offset="0" />
      <stop
         id="stop2811-0"
         style="stop-color:#000022;stop-opacity:0.38999999"
         offset="1" />
    </linearGradient>
  </defs>
  <g
     id="g3737">
    <path
       d="m 304.17319,301.80221 c 0,5.07975 -60.37848,9.1977 -134.85909,9.1977 -74.480606,0 -134.85908,-4.11795 -134.85908,-9.1977 0,-5.07976 60.378474,-9.19771 134.85908,-9.19771 74.48061,0 134.85909,4.11795 134.85909,9.19771 z"
       id="path3702"
       style="fill:#000000;fill-opacity:0.17948716;fill-rule:evenodd;stroke:none" />
    <path
       d="m 263.66393,301.38885 c 0,3.02512 -39.46585,5.47746 -88.14943,5.47746 -48.68358,0 -88.149427,-2.45234 -88.149427,-5.47746 0,-3.02513 39.465847,-5.47747 88.149427,-5.47747 48.68358,0 88.14943,2.45234 88.14943,5.47747 z"
       id="path4591"
       style="fill:#000000;fill-opacity:0.17948716;fill-rule:evenodd;stroke:none" />
    <path
       d="m 281.85176,301.6118 c 0,4.13331 -49.08936,7.48402 -109.64414,7.48402 -60.55478,0 -109.644134,-3.35071 -109.644134,-7.48402 0,-4.13332 49.089354,-7.48403 109.644134,-7.48403 60.55478,0 109.64414,3.35071 109.64414,7.48403 z"
       id="path4593"
       style="fill:#000000;fill-opacity:0.17948716;fill-rule:evenodd;stroke:none" />
  </g>
  <g
     transform="matrix(200,0,0,133.6,-337,-58.29985)"
     clip-path="url(#clipPath3677)"
     id="g2900">
    <rect
       width="5"
       height="3"
       x="0"
       y="0"
       id="black_stripe"
       style="fill:#000000" />
    <rect
       width="5"
       height="2"
       x="0"
       y="1"
       id="red_stripe"
       style="fill:#dd0000" />
    <rect
       width="5"
       height="1"
       x="0"
       y="2"
       id="gold_stripe"
       style="fill:#ffce00" />
  </g>
  <path
     d="m 304.99991,154.49995 c 0,82.01427 -66.4857,148.49996 -148.49996,148.49996 -82.014261,0 -148.499956,-66.48569 -148.499956,-148.49996 0,-82.014257 66.485695,-148.499952 148.499956,-148.499952 82.01426,0 148.49996,66.485695 148.49996,148.499952 z"
     id="path2916"
     style="opacity:0.35060006;fill:#ffffff;fill-opacity:1;fill-rule:evenodd;stroke:none" />
  <path
     d="m 304.99991,154.49995 c 0,82.01427 -66.4857,148.49996 -148.49996,148.49996 -82.014261,0 -148.499956,-66.48569 -148.499956,-148.49996 0,-82.014257 66.485695,-148.499952 148.499956,-148.499952 82.01426,0 148.49996,66.485695 148.49996,148.499952 z"
     id="path1918"
     style="fill:url(#radialGradient2815);fill-opacity:1;fill-rule:evenodd;stroke:none" />
  <g
     transform="translate(0,-2)"
     mask="url(#mask2920)"
     id="g2893">
    <g
       id="g2878">
      <path
         d="M 592.8171,448.4119 C 586.062,437.8911 579.5442,433.0327 566.6813,429.7978"
         transform="matrix(0.650569,0,0,0.650569,-87.30901,-182.4046)"
         id="path623"
         style="font-size:12px;fill:none;stroke:#000000;stroke-width:2.30567408;stroke-miterlimit:4;stroke-dasharray:none;stroke-dashoffset:0" />
      <path
         d="m 50,45.375 13.5,13.75"
         transform="translate(1.573495e-5,-2.01112e-6)"
         id="path1939"
         style="font-size:12px;fill:none;stroke:#ffffff;stroke-width:1.5;stroke-linecap:butt;stroke-linejoin:miter;stroke-miterlimit:4;stroke-opacity:1;stroke-dasharray:none" />
      <path
         d="M 48,92 C 17.343031,113.95613 9.8749323,158.5057 11,158.25"
         transform="translate(1.573495e-5,-2.01112e-6)"
         id="path1941"
         style="font-size:12px;fill:none;stroke:#000000;stroke-width:1.5;stroke-linecap:butt;stroke-linejoin:miter;stroke-miterlimit:4;stroke-opacity:1;stroke-dasharray:none" />
      <path
         d="m 87,95.25 c -3.161261,23.33707 5.251479,48.91426 22.75,76.25"
         transform="translate(1.573495e-5,-2.01112e-6)"
         id="path1943"
         style="font-size:12px;fill:none;stroke:#000000;stroke-width:1.5;stroke-linecap:butt;stroke-linejoin:miter;stroke-miterlimit:4;stroke-opacity:1;stroke-dasharray:none" />
      <path
         d="M 29.125,206.875 C 43.551728,221.29884 62.727088,219.08451 80.75,219.5"
         transform="translate(1.573495e-5,-2.01112e-6)"
         id="path1945"
         style="font-size:12px;fill:none;stroke:#000000;stroke-width:1.5;stroke-linecap:butt;stroke-linejoin:miter;stroke-miterlimit:4;stroke-opacity:1;stroke-dasharray:none" />
      <path
         d="m 124.62757,264.85868 c -3.12231,8.25159 -2.31517,19.68415 -0.53033,31.90819"
         transform="translate(1.573495e-5,-2.01112e-6)"
         id="path1947"
         style="font-size:12px;fill:none;stroke:#000000;stroke-width:1.5;stroke-linecap:butt;stroke-linejoin:miter;stroke-miterlimit:4;stroke-opacity:1;stroke-dasharray:none" />
      <path
         d="M 103.06081,28.41985 C 114.53778,16.928747 139.15577,9.5121461 171.29662,6.1459867"
         transform="translate(1.573495e-5,-2.01112e-6)"
         id="path1949"
         style="font-size:12px;fill:none;stroke:#000000;stroke-width:1.5;stroke-linecap:butt;stroke-linejoin:miter;stroke-miterlimit:4;stroke-opacity:1;stroke-dasharray:none" />
      <path
         d="M 237.32271,50.074995 C 229.33556,35.199221 215.26475,23.510127 200.375,12.25"
         transform="translate(1.573495e-5,-2.01112e-6)"
         id="path1951"
         style="font-size:12px;fill:none;stroke:#000000;stroke-width:1.5;stroke-linecap:butt;stroke-linejoin:miter;stroke-miterlimit:4;stroke-opacity:1;stroke-dasharray:none" />
      <path
         d="m 127.98633,54.052471 c 17.64281,1.987199 49.48708,4.60109 74.77654,18.915107"
         transform="translate(1.573495e-5,-2.01112e-6)"
         id="path1953"
         style="font-size:12px;fill:none;stroke:#000000;stroke-width:1.5;stroke-linecap:butt;stroke-linejoin:miter;stroke-miterlimit:4;stroke-opacity:1;stroke-dasharray:none" />
      <path
         d="m 222.5,124 c -15.12241,20.853 -33.37786,40.31354 -54.5,58.5"
         id="path1964"
         style="fill:none;stroke:#000000;stroke-width:1.5;stroke-linecap:butt;stroke-linejoin:miter;stroke-miterlimit:4;stroke-opacity:1;stroke-dasharray:none" />
      <path
         d="m 177.5,238.25 c 19.35774,10.80051 40.56069,15.44485 66.25,11.25"
         id="path1966"
         style="fill:none;stroke:#000000;stroke-width:1.5;stroke-linecap:butt;stroke-linejoin:miter;stroke-miterlimit:4;stroke-opacity:1;stroke-dasharray:none" />
      <path
         d="m 268.5,136.5 c 9.88101,18.55214 11.33112,44.88666 12.75,71.25"
         id="path1968"
         style="fill:none;stroke:#000000;stroke-width:1.5;stroke-linecap:butt;stroke-linejoin:miter;stroke-miterlimit:4;stroke-opacity:1;stroke-dasharray:none" />
      <path
         d="m 277.75,96.75 c 8.13915,0.273647 16.0266,4.57442 23.5,15.5"
         id="path1970"
         style="fill:none;stroke:#000000;stroke-width:1.5;stroke-linecap:butt;stroke-linejoin:miter;stroke-miterlimit:4;stroke-opacity:1;stroke-dasharray:none" />
    </g>
    <g
       id="g2870">
      <path
         d="m 40.25,98 c 20.653975,3.61865 29.152891,2.15978 46.25,3.75 C 96.606779,88.488277 113.76236,71.702154 131.75,54.5 124.32626,42.915274 117.31948,31.058924 108.5,23.75 86.109731,31.340533 70.164818,40.68889 55,50.25 45.481745,66.824036 40.435292,82.759244 40.25,98 z"
         id="path1972"
         style="fill:#000000;fill-opacity:1;fill-rule:evenodd;stroke:none" />
      <path
         d="m 198,70.75 c 6.79286,18.669048 12.6345,35.43567 21.25,57.75 17.72598,4.68078 36.62577,10.30061 51.25,12.5 4.70076,-9.43748 7.81084,-27.6237 11.25,-44 -11.68034,-18.118165 -28.341,-33.746166 -45.25,-49.25 -12.43564,4.485122 -25.40362,13.228984 -38.5,23 z"
         id="path2860"
         style="fill:#000000;fill-opacity:1;fill-rule:evenodd;stroke:none" />
      <path
         d="m 106.75,167 c 22.79472,3.75 44.78732,7.5 66.25,11.25 6.63556,20.83333 7.4943,41.66667 9.75,62.5 -16.40955,13.63568 -39.03853,17.94221 -59,26.25 -23.22635,-15.01337 -32.6832,-31.74793 -46,-48 7.646852,-17.58581 16.08235,-35.07304 29,-52 z"
         id="path2862"
         style="fill:#000000;fill-opacity:1;fill-rule:evenodd;stroke:none" />
      <path
         d="m 1.0606602,148.80478 c 0.032227,1.04777 8.0467844,2.22601 10.9601548,1.06066 3.346348,21.4179 7.728694,42.14513 19.445437,57.98276 -2.293995,11.22327 -0.134448,20.21976 3.18198,28.63782 -20.318369,5.69467 -18.552158,8.77396 -26.516504,12.37437"
         id="path2864"
         style="fill:#000000;fill-opacity:1;fill-rule:evenodd;stroke:none" />
      <path
         d="m 75.660426,284.39251 c 19.310672,5.11252 33.378614,15.03674 48.260034,9.89949 4.37683,6.19991 16.48638,10.68355 48.08326,12.02082 l -85.913469,7.60139"
         id="path2866"
         style="fill:#000000;fill-opacity:1;fill-rule:evenodd;stroke:none" />
      <path
         d="m 299.625,212.625 c -5.63736,-4.15431 -11.46921,-8.11413 -18.75,-10.625 -14.5,19.3174 -29,41.30773 -43.5,48.25 -0.26726,11.90911 -2.12316,22.54731 -7.375,30.46875 10.95118,0.73852 22.38887,0.69864 35,-1.21875"
         id="path2868"
         style="fill:#000000;fill-opacity:1;fill-rule:evenodd;stroke:none" />
    </g>
  </g>
</svg>
